<?xml version="1.0" encoding="utf-8"?>
<!-- Generator: Adobe Illustrator 22.0.0, SVG Export Plug-In . SVG Version: 6.00 Build 0)  -->
<svg version="1.1" id="Capa_1" xmlns="http://www.w3.org/2000/svg" xmlns:xlink="http://www.w3.org/1999/xlink" x="0px" y="0px"
	 viewBox="0 0 300 300" style="enable-background:new 0 0 300 300;" xml:space="preserve">
<style type="text/css">
	.st0{fill:#111119;}
	.st1{fill:#FFFFFF;}
	.st2{fill:#EF4C45;}
	.st3{font-family:'GillSans-UltraBoldCondensed';}
	.st4{font-size:50.7505px;}
</style>
<circle id="circulo" class="st0" cx="150" cy="150" r="150"/>
<g id="ventana" transform="translate(-94.5 -207.484)">
	<path class="st1" d="M139,267H350c3.9,0,7,3.4,7,7.5v165.8c0,4.2-3.1,7.5-7,7.5H139c-3.9,0-7-3.4-7-7.5V274.6
		C131.9,270.4,135.1,267,139,267z"/>
	<path class="st0" d="M145.6,294.9h197.9c3.6,0,6.6,2.7,6.6,6.1v133.9c0,3.4-3,6.1-6.6,6.1H145.6c-3.6,0-6.6-2.7-6.6-6.1V301
		C139,297.6,141.9,294.9,145.6,294.9z"/>
	<path class="st2" d="M343,281c0,3.8-3.1,7-7,7c-3.9,0-7-3.1-7-7c0-3.8,3.1-7,7-7C339.9,274,343,277.1,343,281z"/>
	<path class="st0" d="M321.9,281c0,3.8-3.1,7-7,7c-3.9,0-7-3.1-7-7c0-3.8,3.1-7,7-7C318.8,274,321.9,277.1,321.9,281z M300.8,281
		c0,3.8-3.1,7-7,7c-3.9,0-7-3.1-7-7c0-3.8,3.1-7,7-7C297.6,274,300.8,277.1,300.8,281z"/>
</g>
<text transform="matrix(0.6221 0 0 1 53.999 164.8652)" class="st1 st3 st4">&lt;ArgueraDev/&gt;</text>
</svg>
